<svg xmlns="http://www.w3.org/2000/svg" viewBox="0 0 24 24" fill="#3DDC84">
    <path d="M17.523 15.3414C17.523 16.2713 16.7692 17.0252 15.8393 17.0252C14.9095 17.0252 14.1556 16.2713 14.1556 15.3414C14.1556 14.4116 14.9095 13.6577 15.8393 13.6577C16.7692 13.6577 17.523 14.4116 17.523 15.3414ZM9.84443 15.3414C9.84443 16.2713 9.09057 17.0252 8.16071 17.0252C7.23085 17.0252 6.47699 16.2713 6.47699 15.3414C6.47699 14.4116 7.23085 13.6577 8.16071 13.6577C9.09057 13.6577 9.84443 14.4116 9.84443 15.3414ZM18.0692 7.78544L20.0249 4.39808C20.1772 4.13401 20.0863 3.79679 19.8222 3.64446C19.5582 3.49213 19.2209 3.583 19.0686 3.84707L17.0673 7.31359C15.5393 6.61483 13.8202 6.21639 12 6.21639C10.1798 6.21639 8.46071 6.61483 6.93275 7.31359L4.93142 3.84707C4.77909 3.583 4.44186 3.49213 4.1778 3.64446C3.91373 3.79679 3.82286 4.13401 3.97519 4.39808L5.93081 7.78544C2.63939 9.58864 0.366224 12.9866 0 17.0506H24C23.6338 12.9866 21.3606 9.58864 18.0692 7.78544Z"/>
</svg>
